<?xml version="1.0" standalone="no"?>
<!DOCTYPE svg PUBLIC "-//W3C//DTD SVG 20010904//EN"
 "http://www.w3.org/TR/2001/REC-SVG-20010904/DTD/svg10.dtd">
<svg version="1.0" xmlns="http://www.w3.org/2000/svg"
 width="832.000000pt" height="832.000000pt" viewBox="0 0 832.000000 832.000000"
 preserveAspectRatio="xMidYMid meet">
<metadata>
Created by potrace 1.14, written by Peter Selinger 2001-2017
</metadata>
<g transform="translate(0.000000,832.000000) scale(0.100000,-0.100000)"
fill="#000000" stroke="none">
<path d="M3157 7360 c-8 -11 -18 -17 -23 -12 -4 4 -3 -1 4 -10 11 -14 10 -16
-7 -11 -13 3 -21 1 -21 -6 0 -7 5 -9 13 -5 8 5 7 2 -2 -9 -11 -13 -17 -15 -28
-6 -7 7 -16 9 -20 5 -3 -3 0 -6 7 -6 14 0 5 -14 -11 -16 -5 -1 -12 -2 -15 -3
-4 0 0 -9 7 -18 8 -9 10 -14 4 -11 -5 3 -16 0 -23 -8 -10 -11 -10 -14 0 -14
10 0 10 -2 -1 -9 -7 -5 -11 -13 -7 -19 3 -5 -1 -15 -9 -22 -8 -7 -12 -16 -9
-21 3 -5 1 -9 -5 -9 -5 0 -8 -9 -6 -20 2 -11 0 -18 -6 -15 -8 6 -14 -25 -10
-49 1 -5 -5 -4 -13 3 -12 10 -14 9 -9 -8 3 -12 0 -28 -7 -36 -6 -8 -8 -20 -4
-26 4 -7 3 -9 -3 -6 -6 4 -14 0 -17 -9 -4 -10 -2 -13 7 -9 6 4 4 0 -5 -8 -12
-10 -14 -17 -6 -25 7 -7 4 -14 -11 -24 -22 -13 -30 -35 -8 -22 6 4 4 -2 -6
-14 -11 -11 -16 -26 -12 -31 3 -6 -2 -11 -12 -11 -14 0 -15 -2 -4 -9 9 -6 10
-11 2 -15 -6 -4 -9 -12 -6 -17 4 -5 1 -9 -6 -9 -8 0 -8 -4 1 -15 11 -13 10
-14 -3 -9 -11 4 -16 0 -17 -13 -1 -45 -5 -63 -13 -63 -4 0 -5 -4 -2 -10 3 -5
2 -10 -3 -10 -6 0 -8 -10 -4 -22 3 -14 1 -19 -6 -14 -8 5 -10 2 -6 -8 3 -9 1
-16 -5 -16 -6 0 -8 -7 -4 -17 4 -10 2 -14 -4 -10 -7 5 -9 0 -6 -13 3 -11 1
-20 -5 -20 -6 0 -9 -9 -7 -20 2 -11 0 -20 -5 -20 -4 0 -7 -11 -5 -25 1 -14 -2
-25 -7 -25 -5 0 -6 -5 -2 -11 3 -6 0 -15 -7 -20 -11 -7 -11 -9 -1 -9 10 0 10
-5 2 -20 -6 -11 -8 -25 -5 -30 3 -6 2 -10 -4 -10 -6 0 -8 -6 -5 -14 3 -8 0
-17 -6 -21 -9 -6 -9 -9 1 -15 9 -6 10 -12 2 -22 -7 -7 -13 -26 -15 -40 -2 -15
-7 -30 -11 -34 -12 -12 -8 -26 6 -18 9 6 9 4 1 -7 -6 -8 -11 -26 -10 -41 1
-14 -2 -24 -6 -22 -5 3 -11 -2 -14 -10 -3 -9 -11 -16 -16 -16 -6 0 -8 7 -4 15
3 8 2 14 -2 12 -12 -4 -54 31 -49 40 3 5 -7 7 -23 5 -23 -3 -28 -8 -24 -26 3
-11 5 -33 5 -49 0 -18 4 -25 12 -20 7 3 3 -4 -7 -16 -19 -21 -19 -21 -1 -15
13 5 16 4 11 -4 -4 -7 -2 -12 6 -12 8 0 9 -3 3 -8 -12 -8 -15 -53 -3 -46 4 3
8 -4 8 -15 0 -12 5 -21 11 -21 8 0 8 -5 -1 -15 -9 -10 -9 -15 -1 -15 6 0 11
-9 11 -19 0 -11 6 -22 13 -24 6 -3 3 -6 -8 -6 -16 -1 -17 -3 -5 -10 8 -6 17
-8 20 -6 3 2 6 -8 6 -23 -1 -18 4 -26 13 -24 11 2 12 0 4 -10 -6 -7 -9 -21 -8
-31 3 -14 0 -15 -9 -8 -7 6 -17 7 -21 3 -5 -4 -5 -1 -1 6 4 7 11 10 15 8 4 -3
8 2 8 10 0 12 -4 12 -18 -3 -27 -28 -28 -72 -3 -97 12 -12 12 -16 2 -16 -7 -1
-2 -8 12 -16 21 -13 22 -15 4 -11 -13 3 -21 -1 -21 -9 0 -7 4 -11 9 -8 4 3 8
-2 8 -11 0 -9 -4 -14 -8 -11 -5 3 -9 -1 -9 -9 0 -8 5 -11 11 -8 6 4 5 0 -2 -9
-9 -12 -10 -17 -1 -20 6 -2 12 -16 12 -31 0 -14 2 -25 6 -24 3 1 7 -2 8 -7 1
-5 7 -13 15 -17 10 -7 10 -9 -2 -9 -8 -1 -4 -6 9 -11 20 -8 22 -11 10 -26 -12
-15 -12 -16 4 -10 9 3 17 2 17 -4 0 -6 5 -7 12 -3 6 4 8 3 4 -4 -3 -5 -1 -12
5 -14 6 -2 1 -12 -11 -23 -16 -14 -21 -15 -18 -5 2 10 -4 14 -20 13 -13 -2
-21 1 -17 7 3 6 -3 10 -14 10 -12 0 -21 -6 -22 -12 0 -7 -2 -21 -4 -30 -2 -10
2 -18 8 -18 7 0 5 -5 -3 -10 -10 -6 -11 -10 -2 -10 6 0 12 -9 12 -20 0 -11 5
-20 10 -20 6 0 10 -6 10 -13 0 -7 9 -23 19 -34 14 -15 17 -23 8 -32 -8 -8 -8
-11 2 -11 7 0 11 -5 9 -12 -2 -6 6 -21 19 -34 25 -25 31 -54 11 -54 -10 0 -10
-2 0 -9 11 -6 6 -14 -17 -30 -17 -13 -28 -27 -24 -33 4 -7 0 -9 -10 -5 -11 4
-14 2 -11 -7 3 -7 -3 -19 -13 -27 -16 -13 -17 -12 -4 4 12 15 12 17 -3 11 -9
-3 -16 -12 -16 -19 0 -7 -8 -19 -17 -26 -11 -10 -14 -10 -9 -1 4 6 3 12 -3 12
-5 0 -13 -5 -16 -10 -5 -8 -11 -7 -21 1 -12 10 -13 9 -8 -6 5 -13 4 -16 -4
-11 -7 4 -12 2 -12 -3 0 -6 -5 -11 -11 -11 -5 0 -7 5 -4 11 4 6 -2 5 -14 -3
-12 -7 -21 -16 -21 -21 0 -4 6 -5 13 -1 8 5 8 3 -2 -9 -7 -9 -17 -15 -21 -12
-5 3 -6 -4 -3 -15 3 -11 1 -20 -4 -20 -5 0 -10 -7 -10 -15 0 -8 4 -15 8 -15 3
0 9 -9 12 -20 3 -12 1 -18 -5 -14 -6 4 -6 -1 1 -13 6 -11 7 -24 3 -28 -4 -3
-2 -5 4 -3 7 1 13 -1 14 -7 1 -5 8 -13 15 -18 8 -4 12 -14 9 -22 -4 -10 0 -15
12 -15 16 0 17 -2 4 -10 -11 -7 -11 -10 -2 -10 7 0 10 -5 7 -10 -4 -6 -1 -9 7
-8 8 2 13 -6 12 -19 0 -16 3 -20 11 -13 18 15 43 -16 26 -33 -10 -9 -11 -8 -5
7 6 15 4 17 -7 11 -21 -13 -55 -11 -75 6 -16 12 -17 12 -10 -1 7 -13 6 -13 -6
0 -7 8 -19 15 -25 16 -7 1 -23 2 -35 3 -19 1 -20 3 -8 11 12 8 9 10 -14 10
-20 0 -27 4 -23 14 4 10 0 12 -15 8 -14 -3 -19 -1 -14 6 6 11 -18 17 -46 13
-4 0 -4 7 -1 16 5 12 3 14 -7 8 -10 -6 -12 -4 -7 8 9 25 -19 10 -30 -16 -12
-28 -7 -77 11 -106 7 -11 5 -13 -6 -9 -8 4 -15 0 -15 -7 0 -8 5 -13 11 -12 6
1 10 -4 8 -10 -1 -7 2 -13 6 -13 11 0 9 -31 -3 -49 -5 -10 -4 -12 3 -7 7 4 12
3 12 -3 0 -5 3 -16 6 -25 4 -11 1 -16 -10 -16 -9 0 -19 -7 -22 -15 -4 -8 -10
-13 -14 -10 -16 10 -3 -24 16 -42 11 -10 15 -15 10 -10 -6 4 -15 7 -20 7 -6 0
0 -7 12 -16 13 -9 19 -20 15 -27 -4 -7 2 -5 12 3 10 8 16 10 12 3 -4 -6 -1
-18 7 -26 8 -8 12 -17 9 -21 -4 -3 1 -6 10 -6 9 0 19 -4 22 -10 3 -6 -1 -7
-12 -4 -12 4 -11 1 4 -8 12 -7 23 -17 24 -23 4 -16 26 -35 33 -27 4 3 4 -1 0
-11 -4 -12 -1 -17 10 -17 9 0 16 -4 16 -10 0 -13 62 -76 72 -73 4 2 8 -2 8 -7
0 -9 -21 -14 -42 -11 -4 0 -5 -6 -2 -14 5 -11 2 -13 -10 -9 -9 3 -16 11 -16
17 0 6 -7 2 -15 -10 -8 -12 -12 -29 -8 -39 5 -13 3 -15 -8 -9 -8 4 -5 -1 6
-12 11 -11 24 -18 29 -15 5 3 6 -3 2 -13 -6 -16 -4 -16 11 -4 9 8 14 9 10 2
-9 -14 32 -45 46 -36 6 3 7 1 3 -6 -4 -6 -13 -8 -19 -4 -7 4 -6 0 2 -10 7 -9
17 -15 21 -12 5 3 15 -1 23 -9 8 -8 18 -12 22 -8 5 4 5 1 1 -6 -5 -9 -1 -15
13 -19 11 -3 18 -9 15 -14 -3 -5 5 -9 18 -9 18 0 20 -2 8 -10 -12 -8 -11 -10
8 -10 12 0 22 -4 22 -10 0 -5 9 -10 20 -10 11 0 20 -4 20 -10 0 -5 6 -10 14
-10 8 0 16 -5 18 -10 2 -6 13 -12 25 -13 18 -1 20 -4 10 -17 -6 -8 -7 -12 -3
-8 5 5 16 -1 24 -13 11 -16 17 -18 28 -8 12 10 15 10 12 -2 -2 -8 -7 -17 -13
-21 -6 -5 -5 -8 3 -8 8 0 10 -5 6 -12 -6 -10 -4 -10 8 0 14 12 16 10 11 -10
-4 -18 -3 -20 6 -8 8 11 11 12 11 2 0 -7 5 -10 10 -7 6 3 10 -1 10 -11 0 -13
3 -14 15 -4 8 7 15 8 15 3 0 -5 7 -10 15 -11 8 -1 21 -3 29 -4 8 -1 12 -7 9
-15 -4 -9 0 -11 10 -7 23 8 87 -15 87 -32 0 -8 -5 -14 -11 -14 -5 0 -7 6 -3
13 6 9 4 9 -7 1 -8 -6 -24 -10 -36 -9 -13 1 -19 -3 -16 -8 4 -6 0 -8 -10 -4
-10 4 -17 2 -17 -5 0 -7 -6 -6 -16 2 -12 11 -15 11 -12 -1 2 -10 -8 -15 -32
-16 -46 -2 -68 -7 -77 -18 -4 -4 -2 -5 6 0 9 5 12 3 9 -6 -3 -8 -10 -13 -15
-12 -5 1 -9 -7 -9 -17 0 -15 3 -17 15 -7 12 10 13 9 3 -10 -17 -31 -15 -38 6
-16 9 10 13 13 8 5 -6 -9 -3 -19 11 -33 15 -16 20 -17 20 -5 0 8 -4 13 -8 10
-4 -2 -10 0 -13 5 -10 16 11 22 24 6 6 -7 19 -11 28 -8 13 4 14 3 3 -5 -7 -5
-9 -12 -5 -14 5 -3 4 -3 -3 -2 -6 2 -17 -4 -24 -12 -10 -12 -13 -12 -24 2 -8
12 -14 14 -19 6 -10 -16 -49 -15 -65 1 -11 10 -12 9 -6 -1 5 -9 1 -12 -11 -10
-11 2 -22 7 -25 11 -3 5 -13 2 -21 -7 -9 -8 -19 -12 -23 -8 -11 11 18 -52 32
-69 7 -9 10 -19 6 -22 -3 -4 4 -16 17 -27 15 -13 18 -20 9 -20 -12 0 -12 -2 1
-9 8 -6 18 -7 24 -4 5 3 6 1 2 -6 -4 -7 2 -20 16 -32 13 -11 17 -17 9 -14 -10
6 -11 2 -6 -15 6 -18 4 -22 -8 -17 -12 4 -14 2 -10 -11 6 -15 4 -15 -9 -4 -14
11 -16 10 -11 -8 4 -16 2 -19 -12 -13 -12 4 -16 3 -11 -5 3 -6 2 -13 -4 -17
-5 -3 -10 -1 -10 5 0 7 -5 6 -14 -2 -8 -7 -11 -17 -8 -22 3 -5 0 -6 -5 -3 -6
4 -16 0 -23 -8 -10 -12 -17 -12 -34 -3 -20 11 -20 10 -6 -7 14 -17 13 -18 -2
-12 -10 3 -18 2 -18 -3 0 -6 -8 -10 -17 -10 -15 0 -16 2 -3 10 9 6 10 10 3 10
-7 0 -17 -8 -22 -17 -10 -17 -10 -17 -11 0 0 9 -5 17 -11 17 -5 0 -7 -6 -3
-12 5 -8 0 -7 -11 2 -17 14 -17 13 -10 -10 7 -22 6 -23 -7 -12 -13 10 -17 10
-22 -3 -3 -9 -2 -13 3 -10 5 3 12 1 16 -4 3 -6 -4 -8 -17 -5 -13 3 -28 6 -35
6 -6 1 -10 9 -8 19 3 13 -2 16 -18 12 -18 -4 -19 -3 -7 6 12 9 11 11 -7 11
-14 0 -23 6 -23 16 0 10 -6 14 -14 11 -10 -4 -13 0 -11 14 3 15 0 19 -10 15
-9 -3 -12 0 -9 8 3 8 0 17 -7 22 -8 5 -10 3 -4 -6 5 -9 4 -11 -4 -6 -9 6 -9
11 0 22 10 12 10 15 -2 12 -8 -2 -13 4 -13 14 1 10 -2 16 -6 13 -5 -3 -11 -1
-15 5 -3 5 -1 10 6 10 7 0 9 3 6 6 -4 4 -13 1 -22 -6 -12 -10 -15 -10 -15 1 0
11 -2 11 -10 -1 -6 -9 -5 -17 3 -22 8 -5 6 -8 -5 -8 -10 0 -18 -5 -18 -11 0
-5 4 -7 10 -4 6 3 10 1 10 -4 0 -6 -6 -11 -12 -11 -9 0 -8 -4 2 -10 10 -6 11
-10 3 -10 -7 0 -13 -5 -13 -11 0 -5 4 -8 8 -5 4 2 8 -4 8 -15 0 -10 -5 -19
-11 -19 -5 0 -3 -5 5 -10 13 -8 13 -10 1 -10 -11 0 -10 -4 5 -16 10 -8 14 -13
7 -10 -7 4 -13 -3 -15 -16 -4 -29 -19 -28 -35 3 -7 13 -13 18 -13 10 0 -9 -6
-7 -19 7 -10 12 -24 22 -30 22 -6 0 -14 7 -17 15 -4 8 -11 12 -17 8 -6 -3 -7
-1 -3 6 4 6 0 14 -8 17 -9 3 -16 12 -16 20 0 8 -6 14 -14 14 -8 0 -18 9 -21
20 -4 11 -11 17 -17 14 -7 -4 -8 -2 -4 4 4 7 3 18 -1 24 -11 17 -40 19 -40 2
0 -7 4 -11 9 -8 4 3 8 0 8 -5 0 -6 -6 -11 -14 -11 -11 0 -12 -10 -5 -46 5 -25
12 -51 16 -57 4 -7 -1 -6 -10 2 -15 12 -17 12 -11 -3 3 -9 10 -16 16 -16 5 0
6 -10 3 -21 -5 -14 -3 -19 3 -15 17 10 23 -11 7 -24 -12 -10 -16 -9 -21 4 -3
9 -10 13 -15 10 -5 -3 -9 1 -10 8 0 7 -4 4 -9 -7 -7 -17 -9 -17 -9 -3 -1 12
-6 15 -18 11 -12 -5 -14 -3 -8 8 6 11 5 12 -6 2 -7 -7 -18 -13 -23 -13 -7 0
-6 3 1 8 8 5 3 11 -13 19 -13 6 -22 8 -19 3 3 -4 -2 -10 -9 -13 -10 -4 -14 0
-11 12 3 14 -1 17 -16 14 -12 -3 -19 0 -19 8 0 11 -2 11 -10 -1 -6 -10 -10
-11 -10 -2 0 6 -12 12 -26 12 -14 0 -23 4 -19 10 4 6 -7 10 -25 10 -21 0 -29
4 -24 12 4 7 3 8 -4 4 -7 -4 -12 -16 -12 -27 0 -11 -4 -17 -10 -14 -6 3 -7 -1
-4 -9 3 -9 11 -16 16 -16 7 0 7 -5 0 -13 -8 -10 -6 -16 9 -25 10 -7 19 -17 19
-24 0 -7 -7 -3 -16 8 -15 18 -15 18 -5 -2 6 -12 7 -25 3 -29 -4 -5 -2 -5 4 -2
15 9 26 -45 12 -54 -6 -4 -5 -8 3 -11 9 -3 14 -23 15 -56 l2 -51 -23 17 c-13
9 -21 20 -18 25 2 4 -1 7 -8 7 -8 0 -7 5 2 17 10 11 10 14 2 9 -8 -4 -13 -2
-13 4 0 6 -5 8 -12 4 -8 -5 -7 0 2 11 12 15 12 17 1 10 -11 -6 -13 -4 -8 8 4
10 2 17 -4 17 -6 0 -8 7 -5 16 3 8 2 12 -4 9 -6 -3 -10 0 -10 7 0 10 -3 9 -10
-2 -6 -9 -5 -17 3 -22 8 -5 7 -8 -4 -8 -21 0 -31 -24 -16 -39 6 -6 7 -11 1
-11 -13 0 -13 -43 0 -52 8 -5 8 -8 0 -8 -7 0 -10 -13 -8 -31 3 -21 0 -28 -9
-24 -6 4 -4 0 6 -8 16 -13 16 -15 1 -21 -18 -7 -37 1 -30 13 3 4 -4 18 -15 29
-11 12 -17 22 -13 22 3 0 1 6 -5 13 -6 8 -8 17 -4 20 3 4 1 7 -5 7 -6 0 -9 7
-5 17 4 11 3 14 -5 9 -12 -7 -13 -6 -17 30 -5 47 -29 53 -54 12 -12 -19 -11
-20 6 -14 17 6 17 5 0 -8 -11 -8 -14 -17 -8 -20 6 -4 7 -14 4 -22 -3 -9 -6
-34 -7 -57 -1 -23 -5 -47 -9 -53 -4 -7 0 -17 8 -24 11 -9 12 -17 5 -30 -7 -13
-7 -21 0 -25 5 -3 10 -11 10 -16 0 -6 -4 -8 -8 -5 -5 3 -9 -1 -9 -9 0 -8 7
-17 15 -20 11 -4 12 -8 2 -20 -10 -12 -10 -15 1 -15 11 0 11 -2 -1 -10 -12 -8
-12 -10 5 -11 11 0 14 -3 7 -6 -10 -4 -10 -8 0 -21 11 -13 11 -14 -2 -7 -10 6
-10 2 3 -12 11 -12 15 -27 11 -38 -5 -13 -4 -16 4 -11 8 5 12 0 12 -13 0 -12
6 -21 13 -21 9 0 8 -3 -2 -9 -11 -7 -9 -10 9 -16 16 -5 19 -10 11 -18 -14 -14
-14 -28 0 -24 10 2 18 -17 21 -50 1 -9 5 -10 14 -2 10 8 12 5 8 -15 -2 -15 -1
-26 3 -25 20 3 27 -2 13 -11 -10 -6 -11 -10 -2 -10 6 0 12 -7 12 -16 0 -8 5
-12 11 -8 8 4 8 0 0 -15 -9 -16 -9 -20 1 -16 7 2 23 -12 35 -31 13 -19 17 -32
10 -28 -6 4 -3 -2 8 -13 11 -11 24 -18 29 -15 5 3 6 -2 3 -12 -4 -9 -3 -14 2
-11 5 3 12 1 16 -5 4 -6 12 -7 18 -4 8 5 8 3 0 -7 -18 -19 -16 -25 10 -26 12
-1 32 -14 45 -28 13 -16 27 -23 35 -19 8 5 7 2 -2 -9 -12 -15 -12 -17 2 -12 8
4 18 1 23 -6 5 -8 3 -10 -6 -4 -9 6 -11 4 -6 -4 5 -7 14 -10 21 -7 8 3 19 -3
27 -12 11 -15 11 -15 -3 -5 -13 10 -16 10 -16 -1 0 -9 10 -13 29 -12 18 1 28
-3 28 -12 0 -7 -5 -10 -12 -6 -7 4 -8 3 -4 -5 4 -6 11 -9 16 -6 4 3 11 -2 14
-11 4 -10 13 -13 27 -9 14 5 19 3 15 -3 -4 -6 2 -8 14 -5 15 4 19 1 15 -9 -4
-9 0 -15 9 -15 8 0 13 3 11 7 -2 4 3 7 12 7 9 0 18 -9 21 -19 2 -11 13 -18 27
-18 13 0 26 -6 28 -12 4 -10 6 -9 6 1 1 10 7 7 20 -8 14 -16 21 -18 24 -9 4
10 8 10 16 -2 9 -13 11 -12 12 5 0 11 3 14 6 7 2 -6 10 -9 16 -5 7 3 3 -4 -8
-17 l-20 -24 35 24 c19 13 32 20 28 15 -8 -9 9 -35 23 -35 5 0 9 5 9 11 0 5
-4 7 -10 4 -5 -3 -10 -1 -10 5 0 7 7 9 16 6 9 -3 18 -6 20 -6 3 0 2 -5 -2 -11
-5 -8 1 -10 20 -7 14 3 29 2 32 -3 2 -5 15 -4 27 0 13 5 30 5 39 0 11 -6 20
-4 28 6 9 11 17 12 32 4 15 -8 19 -8 14 0 -4 6 -2 11 3 11 6 0 11 -4 11 -9 0
-9 48 -6 57 3 4 3 13 0 21 -7 13 -9 14 -9 8 1 -4 6 -3 12 3 12 5 0 17 3 27 7
13 5 15 3 9 -7 -5 -9 -4 -11 4 -6 7 4 9 17 6 29 -4 13 -3 17 2 10 9 -12 37
-12 49 0 4 4 14 1 22 -6 13 -9 14 -9 8 1 -7 11 19 18 48 13 5 -1 6 5 2 14 -3
9 -2 13 3 10 5 -3 13 0 16 5 5 8 14 5 27 -7 20 -18 21 -17 10 2 -9 18 -7 20
24 20 19 0 34 -4 34 -8 0 -5 6 -5 13 -1 8 5 7 2 -2 -9 -8 -10 -11 -20 -7 -24
3 -3 6 -1 6 5 0 18 27 14 34 -4 5 -14 4 -15 -9 -4 -13 11 -14 10 -9 -4 3 -9
10 -16 16 -16 5 0 6 -6 2 -12 -6 -9 -3 -9 9 0 14 12 16 11 12 -7 -2 -12 1 -21
6 -21 6 0 7 -5 4 -10 -4 -6 -3 -10 2 -9 19 3 34 -2 29 -9 -3 -5 4 -14 14 -22
10 -8 17 -17 15 -20 -3 -4 6 -6 20 -5 18 3 22 -1 17 -13 -5 -15 -4 -15 11 -3
16 12 22 8 18 -12 -2 -10 16 -1 43 22 18 15 18 15 6 -9 l-13 -24 27 17 c27 18
35 11 14 -13 -7 -7 -2 -6 12 3 28 20 44 22 34 5 -4 -7 -3 -8 5 -4 9 6 9 11 1
21 -8 9 -8 15 0 20 6 4 9 1 8 -7 -2 -9 7 -13 28 -12 20 1 31 -4 31 -12 0 -11
-4 -11 -14 -2 -11 9 -18 8 -29 -4 -13 -13 -13 -15 0 -15 8 0 13 4 10 9 -8 12
10 10 23 -3 8 -8 13 -8 17 0 11 18 26 13 19 -6 -5 -15 -3 -15 11 2 10 11 15
15 12 8 -4 -6 -1 -15 5 -19 7 -4 9 -3 6 3 -4 6 0 19 9 29 14 18 15 18 8 -6 -6
-24 -5 -24 8 -6 12 15 17 16 23 6 6 -9 4 -11 -5 -5 -9 6 -11 4 -5 -5 6 -10 12
-7 25 10 13 17 19 20 25 10 6 -9 4 -11 -5 -5 -9 5 -11 4 -6 -4 4 -6 12 -9 17
-5 5 3 7 10 4 15 -4 5 -1 9 5 9 6 0 8 5 4 12 -4 7 -3 8 4 4 6 -4 9 -12 6 -19
-3 -8 3 -13 15 -13 11 0 19 3 18 6 -3 14 16 49 30 55 15 5 15 4 -1 -14 -11
-13 -14 -21 -6 -26 6 -3 9 -3 8 2 -1 4 6 20 16 35 10 15 19 33 20 40 1 7 6 19
10 27 6 9 5 12 -2 7 -6 -4 -10 1 -9 13 0 10 6 17 12 15 6 -3 11 5 12 16 1 12
-3 18 -9 14 -6 -4 -6 1 1 14 7 13 17 19 26 16 8 -4 12 -10 9 -15 -3 -5 0 -9 7
-9 8 0 7 -5 -2 -17 -12 -14 -12 -16 0 -8 11 6 13 3 9 -13 -3 -12 -3 -21 1 -20
19 2 24 -3 11 -12 -11 -7 -11 -10 -2 -10 7 0 10 -4 7 -10 -3 -5 -1 -10 5 -10
7 0 9 -7 6 -16 -3 -8 -2 -12 4 -9 9 5 15 -16 11 -38 -1 -5 3 -6 8 -3 5 3 12
-1 15 -10 9 -23 8 -26 -6 -18 -7 4 4 -11 25 -32 20 -22 37 -46 37 -53 0 -6 4
-9 10 -6 5 3 10 1 10 -4 0 -6 11 -11 25 -11 14 0 25 -4 25 -10 0 -5 6 -7 14
-4 8 3 17 1 20 -5 7 -11 36 -3 49 13 6 7 7 4 3 -6 -6 -21 23 -25 43 -5 10 10
11 9 5 -6 -5 -13 -2 -16 10 -11 9 3 13 11 9 18 -4 7 -1 6 9 -2 8 -7 24 -9 33
-5 11 4 16 2 12 -4 -3 -5 0 -10 8 -10 8 0 15 5 15 10 0 5 7 4 15 -3 13 -11 14
-10 9 4 -5 12 -2 15 12 9 13 -5 15 -3 9 8 -5 8 2 5 15 -6 l24 -20 -24 35 c-19
28 -20 32 -4 19 32 -27 42 -30 48 -13 3 8 2 13 -3 10 -4 -3 -8 5 -7 17 1 13 7
22 18 22 9 0 20 4 24 8 4 4 12 7 17 7 5 0 -1 -9 -14 -19 -22 -18 -22 -20 -7
-26 10 -4 15 -12 12 -17 -4 -6 -9 -6 -14 2 -5 8 -9 5 -13 -9 -5 -20 11 -25 24
-7 11 14 29 -3 23 -22 -5 -13 -4 -14 4 -3 6 8 15 10 22 6 8 -5 11 -4 6 3 -3 6
-1 14 5 18 7 4 9 3 6 -2 -3 -6 -2 -16 4 -24 5 -9 9 -10 9 -3 0 12 17 12 37 0
6 -4 15 -2 19 4 5 9 11 7 21 -6 13 -18 13 -18 13 1 0 14 2 16 9 5 7 -10 13
-11 30 -2 20 11 26 8 21 -14 -1 -5 7 -1 18 9 19 17 21 17 32 -1 10 -16 11 -16
6 0 -3 11 0 17 10 17 8 0 12 -4 9 -10 -3 -5 -1 -10 4 -10 6 0 11 9 11 19 0 15
5 18 23 14 13 -3 17 -1 10 4 -8 6 -7 13 4 28 13 17 15 17 9 2 -3 -11 -2 -16 4
-12 6 3 10 15 10 26 0 14 4 18 13 13 9 -6 9 -4 -1 8 -8 10 -9 18 -3 22 6 4 7
14 4 23 -5 11 -3 14 6 8 10 -6 11 -3 3 12 -7 12 -7 25 -1 36 7 12 6 17 -2 17
-9 0 -9 3 0 14 9 11 9 16 0 22 -8 5 -9 3 -4 -6 5 -9 4 -11 -4 -6 -6 4 -8 13
-4 19 10 17 13 58 3 52 -4 -3 -7 19 -7 49 2 46 0 53 -12 43 -12 -10 -12 -9 -2
11 7 13 10 28 8 35 -2 7 0 20 4 29 7 12 4 20 -7 26 -15 8 -15 10 0 15 9 4 13
13 10 22 -3 8 -11 12 -18 8 -6 -4 -5 1 3 10 7 9 11 23 8 30 -3 8 -1 20 3 27 5
8 5 22 -1 31 -6 12 -4 19 7 23 8 3 13 9 10 14 -2 4 -1 14 4 22 5 9 5 19 -2 27
-7 9 -7 13 1 13 6 0 11 9 11 21 0 13 -4 18 -12 13 -7 -4 -8 -3 -4 4 4 7 17 12
29 13 12 0 17 3 10 5 -18 8 -4 34 15 27 13 -4 12 -2 -3 11 -11 10 -15 15 -8
12 6 -4 15 0 20 7 4 8 17 19 28 26 11 7 13 10 5 8 -10 -3 -16 2 -16 14 0 13 4
15 13 8 9 -8 11 -4 7 17 l-5 27 19 -23 c14 -18 19 -19 19 -7 0 9 -5 13 -10 10
-6 -3 -7 -1 -3 6 9 14 26 5 26 -14 0 -7 10 -17 21 -20 17 -6 19 -9 8 -16 -8
-5 -9 -9 -3 -9 13 0 55 -35 56 -46 0 -4 -6 -11 -14 -16 -10 -7 -10 -9 2 -7 8
1 22 1 30 0 12 -1 12 -3 2 -10 -11 -7 -10 -11 2 -24 12 -11 13 -18 5 -23 -9
-5 -8 -10 2 -18 17 -14 21 -46 5 -46 -6 0 -4 -5 4 -10 12 -8 12 -10 -5 -11
-11 0 -14 -3 -7 -6 6 -2 12 -12 12 -21 0 -15 -2 -15 -10 -2 -8 13 -10 12 -10
-3 0 -10 -4 -15 -10 -12 -13 8 -13 -7 0 -23 7 -9 7 -9 -2 -2 -14 12 -31 13
-24 2 2 -4 1 -14 -3 -21 -6 -10 -10 -9 -14 4 -5 10 -3 14 5 9 7 -4 8 -3 4 5
-4 6 -12 9 -17 5 -5 -3 -7 -10 -4 -15 4 -5 0 -9 -7 -9 -10 0 -10 -2 1 -9 10
-7 11 -12 1 -27 -9 -15 -10 -15 -6 -2 2 9 -1 19 -8 21 -9 4 -12 -3 -10 -19 2
-21 0 -22 -17 -14 -25 14 -24 6 4 -20 13 -13 16 -20 7 -18 -8 2 -22 12 -32 23
-13 14 -16 15 -13 4 4 -10 -7 -28 -27 -48 -21 -21 -26 -30 -14 -25 14 5 17 4
12 -4 -4 -7 -2 -12 4 -12 7 0 10 7 7 14 -4 11 -1 13 11 10 12 -4 13 -3 5 3
-10 7 -10 13 0 27 13 17 14 18 20 2 5 -11 3 -15 -5 -10 -7 5 -9 2 -5 -8 3 -9
1 -20 -5 -26 -6 -6 -6 -12 3 -17 7 -5 10 -4 6 2 -4 6 0 14 9 17 21 8 24 8 24
-5 0 -5 -4 -7 -10 -4 -5 3 -10 1 -10 -5 0 -7 7 -10 15 -6 8 3 15 1 15 -4 0 -6
17 -3 37 5 20 9 34 12 30 9 -4 -4 0 -18 9 -32 9 -13 11 -21 5 -18 -7 5 -9 1
-5 -8 3 -9 10 -13 15 -10 5 3 6 -2 3 -10 -4 -10 -1 -16 7 -16 11 0 11 -3 -1
-10 -8 -5 -10 -10 -5 -10 6 0 16 -9 23 -21 8 -12 9 -18 3 -14 -18 10 -12 -7 7
-22 9 -8 11 -12 5 -8 -9 4 -11 1 -7 -9 3 -9 11 -13 18 -9 6 4 4 -2 -4 -12 -8
-10 -10 -16 -5 -13 6 3 16 0 23 -8 10 -11 10 -14 0 -14 -8 -1 -5 -7 7 -16 11
-8 29 -22 40 -31 11 -10 27 -18 35 -18 8 0 14 -6 12 -13 -2 -9 2 -11 14 -4 9
5 33 6 55 2 21 -4 36 -4 34 1 -3 4 -1 11 5 14 6 4 10 3 9 -2 -3 -20 2 -34 11
-28 6 4 7 12 3 18 -3 7 3 4 14 -5 22 -20 33 -23 33 -7 0 5 -5 7 -12 3 -6 -4
-8 -3 -5 3 4 6 18 8 32 6 15 -3 22 -10 18 -17 -4 -6 1 -5 10 2 9 8 22 10 28 6
9 -5 10 -2 5 11 -6 15 -4 16 10 4 21 -17 54 -19 47 -2 -3 7 -1 13 5 13 6 0 13
-6 15 -12 4 -10 6 -10 6 0 1 6 6 12 12 12 5 0 7 -4 4 -10 -3 -5 -2 -10 4 -10
5 0 12 6 15 13 3 8 10 6 21 -8 16 -19 16 -19 11 8 -3 16 -1 25 5 22 5 -4 7
-11 3 -16 -3 -6 5 -8 20 -5 14 3 26 0 26 -6 0 -5 -7 -8 -15 -5 -8 4 -17 1 -21
-6 -4 -7 -4 -9 1 -5 4 4 14 3 22 -3 8 -7 13 -8 13 -1 0 5 7 13 16 16 9 4 13 2
8 -5 -4 -8 1 -9 16 -4 17 6 21 4 14 -6 -6 -12 -5 -12 9 0 11 9 17 9 17 2 0
-11 34 -10 46 2 12 12 26 8 19 -6 -3 -6 2 -2 11 10 9 13 21 23 26 23 6 0 4 -8
-3 -17 -13 -16 -12 -17 4 -4 10 8 16 20 13 27 -3 8 2 11 15 9 17 -4 19 -2 9
10 -10 12 -9 15 3 15 10 0 14 6 11 15 -4 8 -11 12 -18 8 -6 -3 -3 2 6 13 14
16 15 23 6 32 -9 9 -9 12 3 12 12 0 12 1 -1 9 -8 6 -18 7 -24 4 -5 -4 -6 -1 0
8 13 21 14 40 1 32 -6 -4 -8 0 -4 9 3 10 -1 18 -13 21 -14 4 -17 11 -13 27 5
18 3 21 -7 15 -10 -6 -12 -4 -6 10 4 11 2 22 -6 27 -11 6 -11 8 0 8 9 0 10 5
3 19 -6 10 -7 21 -4 25 3 3 1 6 -7 6 -10 0 -10 4 1 17 10 11 10 14 2 9 -7 -4
-13 -3 -13 3 0 5 5 13 10 16 6 4 8 11 4 16 -3 5 -10 7 -15 4 -5 -4 -9 -1 -9 4
0 6 3 11 8 11 12 0 11 54 -1 62 -9 6 -9 8 0 8 6 0 9 9 5 22 -4 16 -2 19 9 13
12 -8 12 -6 0 8 -11 14 -11 17 0 17 9 0 10 3 4 8 -14 10 -18 35 -4 26 8 -5 10
4 7 28 -3 26 0 34 9 31 8 -3 11 3 7 22 -3 15 -1 24 4 21 5 -3 7 6 4 19 -3 17
0 25 9 25 11 0 11 2 -1 10 -12 7 -12 10 -1 10 8 0 11 6 7 16 -4 11 -2 15 7 11
8 -3 12 6 11 29 -1 19 3 34 9 34 6 0 7 3 4 7 -4 3 -1 13 6 21 10 13 9 14 -3 7
-8 -4 -5 2 8 14 26 25 30 40 5 20 -15 -13 -15 -12 -2 11 17 31 30 41 46 35 7
-2 10 4 8 15 -2 12 1 17 10 14 7 -3 16 0 21 7 5 8 3 10 -5 4 -10 -5 -9 -2 0
13 7 12 17 18 23 15 5 -4 7 1 3 10 -3 9 0 18 9 21 8 3 14 11 14 18 0 9 -3 8
-10 -2 -6 -9 -10 -10 -10 -3 0 6 5 15 10 18 6 4 7 12 3 18 -4 8 -1 7 9 -1 14
-11 16 -10 11 9 -5 17 -3 20 8 14 12 -7 12 -6 1 7 -10 12 -10 18 -1 23 8 6 7
10 -2 16 -10 6 -10 9 -2 9 8 0 11 11 9 30 -2 17 1 30 8 30 7 0 7 3 -1 8 -13 8
-12 29 1 51 7 11 10 11 16 0 5 -7 16 -14 25 -15 9 -1 23 -11 32 -21 8 -10 12
-13 9 -6 -4 6 -1 15 5 19 7 4 9 3 5 -4 -3 -6 1 -18 11 -27 16 -16 17 -16 29 0
7 9 18 14 24 10 9 -6 9 -2 1 12 -6 11 -7 23 -4 27 3 3 2 6 -3 6 -5 0 -10 10
-11 21 -2 21 -1 21 13 3 11 -15 13 -15 8 -3 -6 19 11 35 21 20 3 -6 13 -7 22
-4 12 5 14 3 8 -7 -6 -10 -4 -12 7 -7 9 3 21 0 27 -6 8 -8 11 -6 11 8 1 18 2
18 10 3 13 -21 46 -16 42 7 -2 10 1 14 7 10 7 -3 8 0 5 9 -3 9 -11 13 -18 9
-6 -4 -5 1 3 11 13 15 12 18 -7 23 -12 3 -22 10 -22 15 0 5 -4 7 -9 4 -12 -8
-8 27 4 36 6 4 0 8 -12 8 -16 0 -23 6 -23 20 0 11 -7 23 -15 26 -8 4 -13 10
-10 15 3 4 -4 13 -15 19 -11 6 -20 16 -20 22 0 6 -7 20 -16 30 -16 16 -15 18
7 27 14 5 25 5 27 0 2 -5 8 -9 13 -9 6 0 7 4 4 10 -3 6 1 7 9 4 9 -3 13 -10
10 -16 -3 -5 3 -4 14 3 17 11 24 10 38 -2 10 -8 15 -9 11 -3 -4 7 0 15 9 18
21 8 26 8 20 -2 -3 -5 1 -9 9 -9 8 0 12 4 10 8 -3 3 2 12 9 18 12 10 13 8 9
-11 -7 -26 -4 -24 21 16 10 16 13 26 8 22 -6 -3 -14 3 -17 14 -5 16 -10 18
-20 10 -10 -8 -17 -6 -29 12 -15 21 -20 18 -17 -7 1 -5 -7 -1 -16 11 -10 11
-20 20 -23 21 -23 2 -49 16 -44 24 3 6 12 5 22 -3 14 -12 14 -10 3 10 -6 12
-8 22 -4 21 4 -1 19 -1 33 0 19 1 21 4 11 10 -11 7 -9 10 9 13 19 2 23 9 24
39 1 25 -3 35 -11 32 -9 -4 -12 4 -9 26 2 17 -1 28 -6 25 -5 -3 -7 -12 -4 -20
3 -7 0 -16 -7 -20 -7 -4 -9 -4 -5 0 4 5 3 19 -3 33 -5 13 -5 22 -1 19 5 -3 9
1 9 9 0 8 -4 12 -9 9 -4 -3 -8 0 -8 5 0 13 -22 10 -33 -4 -5 -6 -7 -5 -5 3 2
8 6 12 9 10 3 -2 14 4 24 12 11 8 16 10 12 3 -5 -8 -1 -11 12 -10 13 1 17 5
11 12 -5 6 0 11 16 11 13 1 24 -2 24 -8 0 -5 -5 -6 -12 -2 -7 5 -8 3 -3 -6 6
-10 11 -10 20 3 7 9 15 14 18 10 4 -3 7 -1 7 7 0 10 3 10 14 1 10 -8 16 -9 21
-1 3 6 12 7 18 3 7 -4 5 2 -3 12 -14 17 -14 18 8 6 12 -6 22 -8 21 -4 -3 19 2
27 10 14 7 -12 14 -10 36 8 15 11 24 21 20 21 -5 0 -16 -7 -25 -15 -14 -13
-17 -13 -17 -1 0 8 3 14 6 14 16 -3 41 16 41 31 0 14 2 14 10 1 7 -12 9 -10 7
8 -1 17 -6 21 -22 16 -17 -6 -17 -4 5 15 14 13 20 20 14 17 -6 -3 -11 1 -11 8
0 8 7 12 14 9 8 -3 13 0 11 8 -2 8 3 13 10 12 6 -2 12 3 12 11 0 9 9 13 25 11
19 -2 23 1 15 10 -7 8 -3 17 13 31 12 10 16 12 10 4 -7 -8 -13 -19 -13 -24 0
-6 8 1 18 17 10 15 21 24 25 21 3 -4 5 3 2 14 -3 16 1 20 15 17 14 -3 17 1 13
12 -4 10 -2 14 4 10 6 -4 19 3 29 16 19 21 19 21 0 7 -18 -14 -18 -14 -6 7 8
12 17 20 21 17 11 -6 30 32 21 41 -4 5 -2 5 4 2 7 -4 14 3 18 18 4 14 11 23
16 20 5 -3 11 -1 15 5 3 5 1 10 -5 10 -7 0 -6 5 2 14 7 8 18 11 23 8 6 -3 4 2
-4 12 -13 15 -13 19 0 28 11 7 11 11 1 15 -10 4 -10 8 0 21 10 12 10 14 1 8
-7 -4 -13 -2 -13 3 0 6 5 11 10 11 6 0 10 7 10 16 0 9 -5 12 -12 8 -7 -4 -8
-3 -4 4 4 7 15 12 24 12 13 0 14 2 3 9 -10 6 -10 10 -1 16 6 4 9 13 6 21 -3 8
-1 14 5 14 6 0 9 6 7 12 -3 7 4 21 13 32 14 15 16 23 8 39 -7 12 -7 17 -1 13
14 -9 21 15 10 36 -6 13 -5 16 5 12 9 -3 13 4 13 23 -1 15 -4 33 -7 38 -3 6
-4 20 -4 32 1 12 -3 21 -9 20 -6 -1 -10 4 -8 11 1 8 -2 11 -7 8 -15 -9 -21 22
-7 36 15 16 9 41 -7 32 -7 -3 -1 4 13 15 19 16 20 20 6 14 -14 -5 -17 -3 -11
6 6 10 3 11 -12 3 -13 -7 -25 -7 -38 1 -19 10 -19 9 -5 -8 8 -10 10 -16 3 -12
-7 5 -16 -1 -23 -12 -7 -13 -16 -18 -27 -14 -9 4 -14 2 -10 -3 7 -12 -43 -44
-81 -50 -26 -5 -26 -4 -7 10 11 8 23 12 27 10 4 -3 16 0 25 6 16 10 15 10 -4
5 -12 -3 -24 -1 -28 5 -3 5 2 10 12 11 10 0 13 3 6 6 -7 2 -13 9 -13 15 0 6 6
8 14 5 9 -4 13 0 11 11 -1 9 2 22 7 28 5 7 7 18 6 25 -2 8 3 13 11 11 11 -2
12 0 2 11 -9 12 -8 16 4 21 12 4 13 10 6 25 -6 10 -8 21 -5 23 3 3 -2 8 -10
11 -11 4 -13 1 -9 -10 4 -11 3 -14 -5 -9 -18 11 -54 -4 -48 -19 3 -9 -2 -11
-17 -7 -20 5 -21 4 -7 -14 13 -17 13 -18 0 -8 -8 6 -23 10 -32 9 -10 -2 -18 1
-18 7 0 6 8 7 17 4 15 -6 15 -4 -2 14 -14 15 -15 20 -4 20 11 0 11 2 -1 10
-13 9 -13 10 0 10 12 0 12 2 2 9 -11 6 -10 12 5 26 15 16 15 18 2 13 -14 -6
-17 1 -16 39 0 34 -4 49 -18 59 -10 8 -14 14 -9 14 6 0 11 7 11 15 0 8 -8 15
-18 15 -9 0 -20 7 -23 16 -3 8 -2 12 4 9 6 -3 7 1 4 9 -3 9 -10 13 -15 10 -5
-3 -9 0 -9 5 0 6 6 11 13 11 6 0 4 5 -6 11 -12 7 -16 17 -11 31 5 17 3 20 -10
15 -11 -4 -15 -3 -11 4 4 5 1 18 -6 27 -11 14 -11 15 1 5 19 -18 26 -16 27 7
1 11 -2 18 -6 15 -5 -2 -7 7 -6 20 2 13 0 24 -3 24 -25 -4 -40 4 -50 25 -12
27 -5 41 13 26 16 -13 32 5 39 43 3 18 -1 30 -12 37 -16 9 -16 9 0 10 11 0 15
5 12 14 -3 8 2 16 13 19 16 4 16 5 1 6 -11 1 -15 6 -12 16 4 8 10 13 14 10 5
-3 12 0 16 6 4 7 3 9 -3 6 -16 -10 -22 16 -8 30 7 6 15 11 17 10 2 -1 -3 4
-11 11 -13 10 -13 12 1 12 9 0 20 5 24 12 4 6 3 8 -4 4 -6 -3 -14 -1 -18 5 -4
7 -3 9 3 6 6 -4 19 1 29 9 10 9 13 13 7 9 -23 -11 -14 14 15 40 22 21 23 25 7
20 -17 -6 -16 -3 5 15 14 12 18 18 10 14 -12 -6 -13 -5 -4 7 6 8 10 22 9 32
-2 9 0 15 5 12 15 -9 19 22 6 47 -7 13 -11 29 -8 36 5 17 -8 15 -27 -5 -9 -10
-23 -19 -31 -21 -10 -2 -7 4 8 18 24 23 31 40 8 21 -10 -8 -16 -9 -21 -1 -4 6
-1 9 7 8 7 -2 12 5 12 15 -1 9 4 17 12 17 8 0 14 5 14 11 0 5 -4 8 -8 5 -5 -3
-9 2 -9 11 0 9 9 18 19 21 18 4 18 5 1 18 -10 7 -13 14 -7 14 7 0 15 7 18 16
4 10 2 13 -7 8 -7 -5 -6 -1 2 10 13 15 13 19 0 27 -12 8 -6 13 13 10 8 -1 5
20 -5 37 -5 7 -3 12 3 12 7 0 10 6 7 14 -3 7 0 19 6 26 9 10 9 11 0 6 -9 -5
-12 1 -9 21 2 22 -1 29 -15 29 -10 0 -15 -5 -12 -10 3 -5 1 -6 -5 -2 -6 3 -13
2 -17 -4 -8 -13 -25 -3 -25 16 0 8 8 14 18 15 14 0 14 2 -3 9 -11 5 -15 9 -8
9 7 1 10 11 7 26 -3 16 3 31 17 43 14 14 17 22 9 27 -8 5 -8 11 1 21 9 11 8
14 -2 14 -12 0 -12 2 0 9 8 5 11 16 7 29 -4 12 -2 23 5 28 8 5 9 3 4 -6 -5 -9
-4 -11 4 -6 8 5 6 16 -9 36 -18 25 -24 28 -40 18 -10 -7 -16 -16 -14 -20 3 -4
0 -8 -6 -8 -7 0 -10 -6 -7 -14 4 -10 0 -12 -16 -8 -12 3 -16 7 -9 10 10 3 8 8
-5 19 -17 14 -17 14 1 9 15 -5 16 -4 8 7 -16 19 -26 80 -11 72 6 -4 4 6 -5 22
-11 22 -12 33 -4 41 8 8 7 13 -5 18 -12 4 -14 11 -6 31 11 31 11 33 -2 33 -5
0 -7 -5 -3 -12 4 -7 3 -8 -4 -4 -9 5 -9 13 -2 26 7 13 7 21 0 25 -5 3 -10 19
-10 36 0 16 -4 29 -9 29 -6 0 -8 9 -6 20 2 11 -1 20 -7 20 -6 0 -8 9 -5 20 3
11 1 20 -4 20 -5 0 -9 16 -9 36 0 24 -4 33 -12 28 -7 -5 -9 -2 -6 7 3 8 0 23
-8 34 -8 10 -14 24 -14 29 0 6 5 4 10 -4 5 -8 10 -10 10 -4 0 6 -7 17 -15 24
-8 7 -12 16 -9 21 3 5 -1 9 -8 9 -9 0 -9 3 2 10 13 8 12 10 -4 10 -16 0 -16 2
-6 16 11 12 11 15 -1 12 -9 -2 -13 4 -11 19 2 12 -2 25 -9 29 -8 5 -9 3 -4 -6
5 -9 4 -11 -4 -6 -7 5 -8 13 -2 23 6 11 2 27 -11 50 -11 18 -17 33 -14 33 4 0
-1 14 -10 31 -9 18 -11 28 -4 24 7 -4 4 4 -5 18 -9 15 -13 32 -9 38 4 8 3 9
-4 5 -7 -4 -12 -1 -12 8 0 9 -6 16 -12 16 -9 0 -8 4 2 10 13 8 12 10 -3 10
-10 0 -16 4 -13 8 2 4 -5 8 -17 9 -12 0 -16 -1 -9 -4 6 -3 12 -9 12 -14 0 -4
-7 -5 -17 -2 -11 4 -14 3 -9 -5 4 -7 3 -12 -3 -12 -5 0 -18 -8 -27 -17 -17
-17 -18 -17 -11 0 3 9 2 17 -3 17 -6 0 -10 -5 -10 -10 0 -6 -12 -16 -27 -23
-15 -6 -36 -20 -45 -29 -10 -10 -24 -15 -34 -11 -13 5 -15 3 -9 -8 4 -8 4 -11
0 -6 -5 4 -20 0 -34 -10 l-26 -16 19 21 c11 12 14 22 8 22 -6 0 -14 -4 -17
-10 -3 -5 -17 -10 -31 -10 -13 0 -24 -5 -24 -11 0 -5 5 -7 12 -3 7 4 8 3 4 -5
-4 -6 -11 -9 -16 -6 -4 3 -13 -2 -20 -10 -7 -8 -16 -12 -21 -10 -4 3 -13 -4
-19 -16 -7 -11 -14 -18 -17 -15 -3 3 -12 -2 -20 -12 -8 -9 -11 -11 -7 -3 5 9
3 12 -4 7 -7 -4 -12 -15 -12 -24 0 -13 -2 -14 -9 -4 -6 10 -11 9 -22 -4 -12
-15 -12 -17 0 -9 10 6 12 4 7 -4 -5 -7 -15 -10 -23 -7 -8 3 -11 1 -8 -4 3 -6
1 -10 -5 -10 -6 0 -8 -5 -4 -12 5 -8 0 -7 -11 2 -15 12 -17 12 -10 1 6 -11 4
-13 -7 -8 -11 4 -18 -1 -21 -15 -4 -14 -11 -19 -23 -14 -15 6 -15 4 -3 -11 9
-11 10 -14 2 -9 -7 4 -13 2 -13 -3 0 -6 -5 -11 -11 -11 -5 0 -7 5 -3 12 4 7 3
8 -5 4 -6 -4 -9 -12 -6 -17 4 -5 -1 -9 -10 -9 -9 0 -14 -4 -11 -9 3 -5 -8 -14
-24 -21 -16 -7 -27 -16 -24 -21 3 -5 2 -8 -3 -7 -4 1 -22 -5 -39 -15 -17 -9
-35 -13 -40 -9 -5 4 -2 -2 6 -12 10 -13 10 -17 3 -12 -8 4 -13 2 -13 -6 0 -8
-3 -9 -8 -3 -4 6 -14 10 -22 10 -8 -1 -23 2 -32 7 -14 7 -16 5 -11 -9 3 -10 3
-15 -1 -11 -10 8 -36 -14 -29 -24 2 -5 -1 -8 -6 -8 -6 0 -11 -6 -11 -13 0 -7
-9 -19 -20 -27 -11 -8 -20 -24 -20 -35 0 -16 -2 -17 -10 -5 -8 13 -10 13 -10
-2 0 -9 -5 -20 -12 -24 -7 -5 -8 -3 -3 6 5 9 4 11 -4 6 -6 -4 -9 -11 -6 -15 2
-5 -3 -17 -11 -27 -9 -10 -13 -14 -10 -7 4 6 1 15 -5 19 -7 4 -9 3 -5 -4 3 -6
2 -13 -4 -17 -6 -4 -7 -11 -4 -17 5 -7 1 -9 -9 -5 -12 4 -15 1 -12 -14 4 -20
4 -20 -23 -3 -24 15 -25 16 -13 1 11 -14 11 -20 1 -32 -7 -8 -16 -13 -20 -10
-5 3 -10 -3 -13 -12 -3 -15 -6 -14 -15 7 -10 21 -12 22 -11 5 2 -34 0 -38 -15
-26 -11 9 -16 9 -22 0 -5 -8 -3 -9 6 -4 9 5 11 4 6 -3 -11 -19 -25 -14 -23 8
1 18 10 24 30 21 10 -1 4 22 -8 32 -6 5 -3 7 7 3 10 -3 20 -1 23 4 4 6 0 10
-7 11 -7 0 -2 5 12 10 18 8 21 12 11 18 -11 7 -11 9 0 14 11 4 11 6 1 6 -7 1
-11 5 -8 10 8 12 -13 8 -44 -9 -24 -13 -24 -12 -10 5 13 17 13 18 0 10 -8 -5
-21 -17 -29 -28 -9 -13 -16 -16 -24 -8 -7 7 -14 5 -23 -7 -9 -11 -13 -13 -14
-4 0 7 -5 10 -10 7 -6 -4 -7 -12 -3 -18 5 -8 2 -8 -9 1 -12 10 -18 9 -28 -3
-7 -9 -19 -14 -27 -11 -8 3 -13 -2 -13 -12 0 -14 -2 -15 -10 -2 -8 12 -10 12
-16 -3 -8 -22 -25 -22 -18 1 2 9 0 7 -7 -5 l-11 -22 -24 24 c-23 23 -32 41
-16 31 5 -3 9 1 9 8 0 10 -6 10 -28 -1 -26 -13 -44 -39 -40 -56 1 -5 -3 -6 -9
-2 -6 4 -7 12 -3 19 4 7 1 4 -8 -6 -9 -9 -20 -14 -25 -10 -5 4 -2 -1 5 -11 12
-15 12 -17 -1 -12 -9 4 -18 -1 -22 -10 -3 -10 -13 -15 -20 -12 -10 4 -14 0
-11 -12 5 -25 -42 -16 -50 10 -4 10 -11 19 -16 19 -5 0 -9 6 -9 14 0 8 -5 18
-12 22 -7 5 -8 2 -3 -7 4 -8 -4 -2 -19 13 -14 15 -26 32 -26 38 0 5 -4 10 -10
10 -5 0 -10 8 -11 18 0 14 -2 14 -9 -3 -7 -16 -9 -17 -9 -3 -1 26 -16 30 -35
9 -13 -14 -14 -21 -5 -27 8 -5 10 -3 4 6 -5 9 -4 11 4 6 15 -10 3 -29 -15 -22
-7 3 -16 1 -19 -5 -4 -5 -1 -8 5 -7 7 2 14 -5 15 -15 3 -18 3 -18 -16 -2 -10
10 -16 22 -13 26 3 5 0 9 -6 9 -6 0 -8 5 -4 13 6 8 3 8 -9 -1 -14 -12 -16 -11
-12 8 3 18 2 20 -10 10 -12 -10 -13 -8 -10 9 3 15 -1 21 -14 21 -18 0 -68 49
-63 62 1 4 -6 4 -15 1 -12 -5 -15 -2 -10 9 4 12 1 14 -14 11 -17 -5 -24 5 -20
30 1 6 -22 11 -41 8 -4 0 -4 7 -1 16 4 11 3 14 -5 9 -7 -4 -12 -3 -12 1 0 5
-14 10 -31 11 -21 2 -28 -1 -23 -9 4 -8 3 -9 -4 -5 -6 4 -8 14 -5 24 5 14 4
15 -8 4 -11 -10 -17 -8 -32 10 -10 13 -16 17 -12 11 4 -9 1 -11 -9 -7 -9 3
-16 15 -16 25 0 10 -5 19 -11 19 -5 0 -8 -4 -5 -8 3 -5 -1 -9 -9 -9 -7 0 -12
8 -10 19 2 10 0 16 -6 13 -5 -4 -9 -1 -9 4 0 6 -7 11 -15 11 -8 0 -15 9 -15
20 0 11 -5 20 -11 20 -5 0 -7 -5 -4 -10 4 -6 -5 -5 -19 2 -27 12 -33 24 -16
30 5 2 -4 11 -20 20 -20 12 -32 13 -36 6 -5 -7 -2 -8 7 -3 8 5 11 4 6 0 -12
-13 -47 -16 -47 -4 0 5 5 7 10 4 6 -3 10 -2 10 4 0 5 -9 9 -19 8 -11 0 -17 -5
-15 -9 3 -4 1 -8 -4 -8 -6 0 -13 7 -16 16 -3 9 -13 14 -21 11 -10 -4 -12 -1
-8 10 5 13 2 15 -12 9 -11 -4 -16 -4 -13 0 9 9 -14 31 -38 36 -10 2 -18 10
-16 17 1 7 -2 10 -7 7 -5 -3 -11 1 -14 9 -4 8 -15 12 -27 10 -16 -3 -20 0 -16
10 3 10 0 12 -11 8 -11 -4 -14 -2 -9 5 4 7 -4 14 -21 18 -15 3 -33 13 -40 21
-6 8 -23 16 -36 17 -14 0 -24 3 -22 6 2 3 -3 11 -11 18 -9 8 -14 9 -14 2 0 -7
-6 -5 -15 4 -8 8 -15 19 -15 25 0 5 -5 13 -12 17 -7 4 -8 3 -4 -4 4 -7 2 -12
-3 -12 -6 0 -11 7 -11 15 0 8 -3 14 -7 14 -20 -3 -26 2 -13 11 12 8 10 10 -8
10 -13 0 -20 4 -17 10 12 19 -4 10 -18 -10z m568 -328 c-3 -3 -11 0 -18 7 -9
10 -8 11 6 5 10 -3 15 -9 12 -12z m1585 -190 c0 -12 -3 -12 -15 -2 -8 7 -15
13 -15 15 0 1 7 2 15 2 8 0 15 -7 15 -15z m-640 -237 c12 -14 9 -18 -7 -12 -5
1 -7 6 -5 11 2 5 -4 6 -13 2 -9 -3 -13 -2 -10 4 9 14 21 12 35 -5z m1786 -217
c4 -7 3 -8 -4 -4 -7 4 -12 2 -12 -5 0 -7 -3 -10 -6 -6 -6 5 3 27 11 27 2 0 7
-5 11 -12z m-105 -1101 c-10 -9 -11 -8 -5 6 3 10 9 15 12 12 3 -3 0 -11 -7
-18z m367 -730 c20 -24 17 -39 -8 -43 -24 -4 -24 -4 -5 10 11 8 17 18 12 22
-4 4 -7 2 -7 -4 0 -7 -5 -12 -11 -12 -8 0 -8 4 0 14 9 11 9 15 -1 19 -8 3 -8
6 -2 6 6 1 16 -5 22 -12z m-4168 -497 c0 -5 -5 -10 -11 -10 -5 0 -7 5 -4 10 3
6 8 10 11 10 2 0 4 -4 4 -10z m-86 -18 c3 -5 -1 -9 -9 -9 -8 0 -12 4 -9 9 3 4
7 8 9 8 2 0 6 -4 9 -8z m350 -328 c3 -8 2 -12 -4 -9 -6 3 -10 10 -10 16 0 14
7 11 14 -7z m220 -182 c3 -5 -1 -9 -9 -9 -8 0 -12 4 -9 9 3 4 7 8 9 8 2 0 6
-4 9 -8z m-151 -37 c-3 -9 -8 -14 -10 -11 -3 3 -2 9 2 15 9 16 15 13 8 -4z
m-1379 -621 c3 -8 2 -12 -4 -9 -6 3 -10 10 -10 16 0 14 7 11 14 -7z m3079
-689 c-3 -9 -8 -14 -10 -11 -3 3 -2 9 2 15 9 16 15 13 8 -4z m-2613 -346 c0
-14 -17 -10 -23 5 -4 10 -1 13 9 9 7 -3 14 -9 14 -14z m917 -5 c-3 -3 -12 -4
-19 -1 -8 3 -5 6 6 6 11 1 17 -2 13 -5z m-323 -93 c3 -5 -1 -11 -9 -14 -9 -4
-12 -1 -8 9 6 16 10 17 17 5z m46 5 c0 -2 -7 -7 -16 -10 -8 -3 -12 -2 -9 4 6
10 25 14 25 6z m944 -41 c-4 -8 -11 -15 -16 -15 -6 0 -5 6 2 15 7 8 14 15 16
15 2 0 1 -7 -2 -15z m-144 -65 c0 -5 -5 -10 -11 -10 -5 0 -7 5 -4 10 3 6 8 10
11 10 2 0 4 -4 4 -10z m770 -45 c0 -8 -2 -15 -4 -15 -2 0 -6 7 -10 15 -3 8 -1
15 4 15 6 0 10 -7 10 -15z m1110 11 c0 -3 -4 -8 -10 -11 -5 -3 -10 -1 -10 4 0
6 5 11 10 11 6 0 10 -2 10 -4z m-1145 -15 c3 -5 2 -12 -3 -15 -5 -3 -9 1 -9 9
0 17 3 19 12 6z m1419 1 c3 -5 -1 -9 -9 -9 -8 0 -12 4 -9 9 3 4 7 8 9 8 2 0 6
-4 9 -8z m-1347 -48 c-3 -3 -12 -4 -19 -1 -8 3 -5 6 6 6 11 1 17 -2 13 -5z
m10 -29 c0 -8 -4 -12 -9 -9 -4 3 -8 9 -8 15 0 5 4 9 8 9 5 0 9 -7 9 -15z"/>
<path d="M6430 6119 c0 -5 5 -7 10 -4 6 3 10 8 10 11 0 2 -4 4 -10 4 -5 0 -10
-5 -10 -11z"/>
<path d="M6490 5766 c0 -2 7 -9 15 -16 13 -11 14 -10 9 4 -5 14 -24 23 -24 12z"/>
<path d="M2700 5396 c0 -2 7 -9 15 -16 9 -7 15 -8 15 -2 0 5 -7 12 -15 16 -8
3 -15 4 -15 2z"/>
<path d="M6690 4679 c0 -5 5 -7 10 -4 6 3 10 8 10 11 0 2 -4 4 -10 4 -5 0 -10
-5 -10 -11z"/>
<path d="M6725 4590 c-3 -6 1 -7 9 -4 18 7 21 14 7 14 -6 0 -13 -4 -16 -10z"/>
<path d="M2666 3053 c-6 -14 -5 -15 5 -6 7 7 10 15 7 18 -3 3 -9 -2 -12 -12z"/>
<path d="M5853 2885 c0 -8 4 -12 9 -9 5 3 6 10 3 15 -9 13 -12 11 -12 -6z"/>
<path d="M4645 1980 c-3 -6 1 -7 9 -4 18 7 21 14 7 14 -6 0 -13 -4 -16 -10z"/>
<path d="M1768 1973 c6 -2 9 -10 6 -15 -4 -7 -2 -8 5 -4 13 9 5 26 -12 25 -9
0 -8 -2 1 -6z"/>
<path d="M2850 1801 c0 -5 7 -12 16 -15 14 -5 15 -4 4 9 -14 17 -20 19 -20 6z"/>
<path d="M2797 1793 c-11 -11 -8 -20 7 -20 8 0 12 6 9 14 -6 15 -7 15 -16 6z"/>
<path d="M2695 1751 c-3 -5 -2 -12 3 -15 5 -3 9 1 9 9 0 17 -3 19 -12 6z"/>
<path d="M3710 1566 c0 -2 8 -10 18 -17 15 -13 16 -12 3 4 -13 16 -21 21 -21
13z"/>
<path d="M4150 1551 c0 -6 4 -12 8 -15 5 -3 9 1 9 9 0 8 -4 15 -9 15 -4 0 -8
-4 -8 -9z"/>
</g>
</svg>
